<svg xmlns="http://www.w3.org/2000/svg" xmlns:xlink="http://www.w3.org/1999/xlink"><symbol id="face" viewBox="0 0 24 24"><path d="M9 11.75a1.25 1.25 0 1 0 0 2.5 1.25 1.25 0 0 0 0-2.5zm6 0a1.25 1.25 0 1 0 0 2.5 1.25 1.25 0 0 0 0-2.5zM12 2C6.48 2 2 6.48 2 12s4.48 10 10 10 10-4.48 10-10S17.52 2 12 2zm0 18c-4.41 0-8-3.59-8-8 0-.29.02-.58.05-.86 2.36-1.05 4.23-2.98 5.21-5.37a9.974 9.974 0 0 0 10.41 3.97c.21.71.33 1.47.33 2.26 0 4.41-3.59 8-8 8z"/><path fill="none" d="M0 0h24v24H0z"/></symbol><symbol id="lock" viewBox="0 0 24 24"><path d="M0 0h24v24H0z" fill="none"/><path d="M18 8h-1V6c0-2.76-2.24-5-5-5S7 3.24 7 6v2H6c-1.1 0-2 .9-2 2v10c0 1.1.9 2 2 2h12c1.1 0 2-.9 2-2V10c0-1.1-.9-2-2-2zm-6 9c-1.1 0-2-.9-2-2s.9-2 2-2 2 .9 2 2-.9 2-2 2zm3.1-9H8.9V6c0-1.71 1.39-3.1 3.1-3.1 1.71 0 3.1 1.39 3.1 3.1v2z"/></symbol><symbol id="open-menu"><path d="M5 13l4 4-1.4 1.42L1.18 12 7.6 5.58 9 7l-4 4h16v2H5zm16-7v2H11V6h10zm0 10v2H11v-2h10z"/></symbol><symbol id="stat" viewBox="0 0 24 24"><path d="M3 22V8h4v14H3zm7 0V2h4v20h-4zm7 0v-8h4v8h-4z"/></symbol><symbol id="team" viewBox="0 0 24 24"><path d="M16 17v2H2v-2s0-4 7-4 7 4 7 4zm-3.5-9.5a3.5 3.5 0 1 0-7 0 3.5 3.5 0 0 0 7 0zm3.44 5.5A5.32 5.32 0 0 1 18 17v2h4v-2s0-3.63-6.06-4zM15 4a3.39 3.39 0 0 0-1.93.59 5 5 0 0 1 0 5.82A3.39 3.39 0 0 0 15 11a3.5 3.5 0 0 0 0-7z"/></symbol></svg>